<svg width="145" height="145" xmlns="http://www.w3.org/2000/svg" xmlns:xlink="http://www.w3.org/1999/xlink" xml:space="preserve" overflow="hidden"><g><g><path d="M48.3333 93.6458C48.3333 100.319 42.9234 105.729 36.25 105.729 29.5766 105.729 24.1667 100.319 24.1667 93.6458 24.1667 86.9724 29.5766 81.5625 36.25 81.5625 42.9234 81.5625 48.3333 86.9724 48.3333 93.6458Z" fill="#000000" fill-rule="nonzero" fill-opacity="1"/><path d="M120.833 93.6458C120.833 100.319 115.423 105.729 108.75 105.729 102.077 105.729 96.6667 100.319 96.6667 93.6458 96.6667 86.9724 102.077 81.5625 108.75 81.5625 115.423 81.5625 120.833 86.9724 120.833 93.6458Z" fill="#000000" fill-rule="nonzero" fill-opacity="1"/><path d="M58.9062 63.4375 58.9062 45.3125 79.599 45.3125C81.2604 45.3125 82.7708 45.9167 83.8281 47.125L100.141 63.4375 58.9062 63.4375ZM52.8646 63.4375 14.651 63.4375 30.9635 47.125C32.1719 45.9167 33.6823 45.3125 35.1927 45.3125L52.8646 45.3125 52.8646 63.4375ZM123.854 63.4375 111.318 63.4375C109.656 63.4375 108.146 62.8333 107.089 61.625L88.0573 42.7448C85.7917 40.4792 82.7708 39.2708 79.4479 39.2708L35.1927 39.2708C32.0208 39.2708 28.849 40.4792 26.5833 42.7448L7.85417 61.625C6.64583 62.8333 6.04167 64.3437 6.04167 66.0052L6.04167 81.5625C6.04167 88.2083 11.4792 93.6458 18.125 93.6458L19.6354 93.6458C19.6354 84.4323 27.0365 77.0312 36.25 77.0312 45.4635 77.0312 52.8646 84.4323 52.8646 93.6458L92.1354 93.6458C92.1354 84.4323 99.5365 77.0312 108.75 77.0312 117.964 77.0312 125.365 84.4323 125.365 93.6458L132.917 93.6458C136.24 93.6458 138.958 90.9271 138.958 87.6042L138.958 78.5417C138.958 70.2344 132.161 63.4375 123.854 63.4375Z" fill="#000000" fill-rule="nonzero" fill-opacity="1"/></g></g></svg>